<svg width="48" height="48" viewBox="0 0 48 48" fill="none" xmlns="http://www.w3.org/2000/svg">
<rect width="48" height="48" fill="#E4E4E4"/>
<g id="Dashboard" clip-path="url(#clip0_0_1)">
<rect width="1920" height="1080" transform="translate(-17 -27)" fill="#F8F8F8"/>
<g id="Group 42">
<g id="Rectangle 66" filter="url(#filter0_d_0_1)">
<rect x="-15" y="-27" width="1918" height="79" fill="#F8F8F8"/>
</g>
</g>
<g id="Group 45">
<g id="Rectangle 1">
<mask id="path-2-inside-1_0_1" fill="white">
<path d="M-17 -26.9999H298V1053H-17V-26.9999Z"/>
</mask>
<path d="M-17 -26.9999H298V1053H-17V-26.9999Z" fill="white"/>
<path d="M297 -26.9999V1053H299V-26.9999H297Z" fill="#1C1C1C" fill-opacity="0.1" mask="url(#path-2-inside-1_0_1)"/>
</g>
<g id="Group">
<g id="Group_2">
<g id="Group_3">
<path id="Vector" d="M47.8227 24.1642C47.8227 37.2309 37.2293 47.8243 24.1626 47.8243C11.0976 47.8243 0.502441 37.2309 0.502441 24.1642C0.502441 11.0975 11.0976 0.504028 24.1626 0.504028C37.2301 0.504859 47.8227 11.0975 47.8227 24.1642Z" fill="#006F45"/>
<path id="Vector_2" d="M40.4795 24.1641C40.4795 33.1752 33.1745 40.481 24.1634 40.481C15.1523 40.481 7.84729 33.176 7.84729 24.1641C7.84729 15.153 15.1531 7.84961 24.1634 7.84961C33.1745 7.85044 40.4795 15.153 40.4795 24.1641Z" fill="white"/>
<path id="Vector_3" d="M6.28395 36.9443L5.62643 35.9099C5.49692 35.7048 5.4114 35.5454 5.36823 35.4325C5.32672 35.3221 5.30929 35.2017 5.32091 35.0847C5.33668 34.9634 5.37819 34.8431 5.44793 34.7243C5.52265 34.6015 5.6256 34.5019 5.7576 34.4163C5.9004 34.3283 6.05233 34.276 6.21256 34.2652C6.37445 34.2553 6.5189 34.2885 6.65174 34.3615C6.60359 34.1698 6.62102 33.9904 6.69823 33.8244C6.77627 33.6584 6.90329 33.5181 7.07847 33.4068C7.2196 33.3171 7.3707 33.2599 7.53674 33.2316C7.70195 33.2017 7.85554 33.2117 7.99253 33.2532C8.132 33.3014 8.25487 33.3852 8.36197 33.5131C8.42507 33.5944 8.56703 33.8003 8.77956 34.1283L9.3383 35.0091L6.28395 36.9443ZM6.46328 36.1008L7.16398 35.6525L6.94978 35.3113C6.81861 35.1062 6.73808 34.9834 6.69906 34.9385C6.62932 34.8547 6.54713 34.8107 6.45581 34.7949C6.36282 34.7825 6.26652 34.8082 6.16939 34.8705C6.0764 34.9294 6.01331 35.0008 5.98176 35.083C5.9527 35.1619 5.95768 35.2515 5.99919 35.3453C6.0241 35.4001 6.11625 35.5537 6.2715 35.7995L6.46328 36.1008ZM7.67705 35.3312L8.49065 34.8132L8.18347 34.3317C8.06309 34.1415 7.98339 34.027 7.94105 33.9821C7.87215 33.9149 7.79245 33.8792 7.69697 33.8701C7.6015 33.8618 7.50187 33.8925 7.39062 33.9597C7.30096 34.0195 7.23454 34.0876 7.19469 34.1656C7.15567 34.247 7.14239 34.3275 7.15733 34.4163C7.17311 34.506 7.25862 34.6729 7.40806 34.9103L7.67705 35.3312Z" fill="white"/>
<path id="Vector_4" d="M6.71149 29.9698L6.97383 30.5784L6.32461 31.1446L6.81028 32.2745L7.65875 32.1848L7.91861 32.7917L4.13119 33.128L3.87134 32.5194L6.71149 29.9698ZM5.84475 31.5722L4.77876 32.4904L6.176 32.3418L5.84475 31.5722Z" fill="white"/>
<path id="Vector_5" d="M6.67916 29.7845L3.16904 30.6513L3.02375 30.071L5.08018 28.2652L2.72072 28.8472L2.58374 28.2951L6.09387 27.4259L6.2433 28.0237L4.23503 29.802L6.54218 29.2283L6.67916 29.7845Z" fill="white"/>
<path id="Vector_6" d="M4.57214 25.6079L3.96442 25.6568L3.85982 24.331L5.29691 24.2206C5.45465 24.3352 5.59828 24.5145 5.72945 24.7494C5.85896 24.986 5.93617 25.2268 5.95361 25.4783C5.98017 25.7988 5.92206 26.0836 5.78341 26.331C5.64394 26.5809 5.43306 26.7768 5.1483 26.9196C4.86188 27.0616 4.54474 27.1454 4.2002 27.172C3.82412 27.2002 3.48871 27.1628 3.18486 27.0516C2.88266 26.9412 2.64439 26.7668 2.46838 26.5178C2.33223 26.3343 2.25502 26.0969 2.23011 25.803C2.20189 25.426 2.27329 25.1238 2.44597 24.8964C2.61782 24.6681 2.86606 24.512 3.19316 24.4248L3.37414 25.0242C3.20063 25.079 3.06614 25.1712 2.97232 25.2974C2.87934 25.4252 2.84032 25.5755 2.85194 25.7531C2.87436 26.0238 2.99142 26.2297 3.20644 26.3741C3.42064 26.5144 3.72366 26.5692 4.1205 26.541C4.54972 26.5061 4.86271 26.4015 5.06528 26.2206C5.26619 26.0462 5.35668 25.8262 5.33593 25.5639C5.32763 25.4335 5.28529 25.3073 5.21555 25.182C5.14498 25.0566 5.06445 24.952 4.97313 24.8648L4.51651 24.8997L4.57214 25.6079Z" fill="white"/>
<path id="Vector_7" d="M5.81741 23.7258L2.24585 23.4526L2.29151 22.8341L5.25702 23.0641L5.37325 21.5291L5.98096 21.5755L5.81741 23.7258Z" fill="white"/>
<path id="Vector_8" d="M6.64179 18.5801L6.49484 19.2268L5.63806 19.3007L5.35994 20.5012L6.10381 20.9304L5.95354 21.5738L2.6958 19.6145L2.84026 18.9678L6.64179 18.5801ZM4.99548 19.363L3.59326 19.4775L4.80702 20.1782L4.99548 19.363Z" fill="white"/>
<path id="Vector_9" d="M3.37231 17.0425L3.79987 16.0006C3.89369 15.7657 3.9875 15.5971 4.08131 15.4909C4.20585 15.3481 4.36608 15.2476 4.56283 15.1878C4.75876 15.133 4.97711 15.1156 5.21538 15.1405C5.45448 15.1662 5.73094 15.2426 6.04227 15.3705C6.32039 15.4809 6.54538 15.6071 6.72055 15.7457C6.9364 15.9168 7.09082 16.0977 7.18962 16.2895C7.26185 16.4348 7.29838 16.605 7.29423 16.7993C7.28924 16.9437 7.24358 17.1231 7.1589 17.3323L6.72221 18.4066L3.37231 17.0425ZM4.17015 16.7021L6.39013 17.6037L6.56281 17.1795C6.62674 17.0218 6.66327 16.9022 6.66991 16.8209C6.68153 16.7187 6.66576 16.6241 6.62674 16.5369C6.5844 16.4473 6.49722 16.3534 6.36273 16.2538C6.22907 16.1559 6.03065 16.0529 5.77162 15.9466C5.51426 15.842 5.30919 15.7798 5.15394 15.764C4.99787 15.7466 4.87001 15.7557 4.76292 15.7914C4.65582 15.8296 4.57031 15.8952 4.49974 15.9923C4.44495 16.062 4.37023 16.214 4.27641 16.4456L4.17015 16.7021Z" fill="white"/>
<path id="Vector_10" d="M7.87632 15.6927L4.77881 13.8313L5.9411 11.8961L6.4658 12.2066L5.62064 13.618L6.3039 14.0298L7.09177 12.7164L7.61397 13.0318L6.8286 14.3427L7.67292 14.8508L8.55045 13.3897L9.07265 13.7035L7.87632 15.6927Z" fill="white"/>
<path id="Vector_11" d="M8.29059 12.7612L8.62184 12.254C8.82773 12.3777 9.01121 12.4292 9.16563 12.4159C9.32171 12.4009 9.46035 12.3221 9.57658 12.1768C9.70443 12.0232 9.76338 11.8762 9.75093 11.7334C9.73764 11.5948 9.67953 11.4819 9.57658 11.3964C9.51349 11.3416 9.44375 11.3134 9.36903 11.3067C9.2968 11.3026 9.20963 11.3283 9.10917 11.3789C9.03778 11.4171 8.89498 11.5109 8.67414 11.6645C8.38772 11.8563 8.14862 11.9584 7.95601 11.9759C7.68453 11.9925 7.43796 11.9111 7.21546 11.7301C7.0735 11.6131 6.96972 11.4703 6.90414 11.3017C6.83606 11.1315 6.82361 10.9555 6.86429 10.7746C6.90414 10.5936 6.99961 10.4109 7.14905 10.2291C7.3923 9.93438 7.65465 9.77498 7.93194 9.7509C8.20923 9.72766 8.47987 9.81732 8.74222 10.0216L8.37112 10.5164C8.21255 10.4184 8.07307 10.3777 7.95352 10.3927C7.83646 10.4101 7.72272 10.4823 7.61148 10.6185C7.49774 10.7546 7.44211 10.8916 7.44626 11.0253C7.44626 11.1124 7.48445 11.1847 7.55751 11.2453C7.62144 11.2959 7.69782 11.3217 7.7825 11.3134C7.89375 11.3009 8.07556 11.2071 8.32795 11.0278C8.58448 10.8484 8.79203 10.7314 8.95143 10.6782C9.11415 10.6226 9.2802 10.6143 9.45039 10.65C9.62141 10.6857 9.79576 10.7754 9.97508 10.9207C10.132 11.0527 10.2532 11.2104 10.3296 11.4022C10.406 11.594 10.4226 11.7866 10.3794 11.9784C10.3337 12.1693 10.2266 12.371 10.0564 12.5753C9.81319 12.8766 9.54088 13.036 9.24616 13.0618C8.94645 13.09 8.6318 12.9871 8.29059 12.7612Z" fill="white"/>
<path id="Vector_12" d="M11.0535 11.3025L8.64673 8.60768L9.10749 8.1959L10.0556 9.25524L10.9555 8.45243L10.0099 7.39225L10.4699 6.98047L12.8775 9.67782L12.4167 10.0896L11.3615 8.90822L10.4616 9.71186L11.5151 10.8916L11.0535 11.3025Z" fill="white"/>
<path id="Vector_13" d="M14.2116 8.72735L12.4607 5.56259L13.5939 4.93578C13.8804 4.77804 14.102 4.69087 14.2631 4.67592C14.4233 4.66264 14.5835 4.70581 14.7429 4.80793C14.8998 4.91087 15.0319 5.05367 15.1356 5.24296C15.2651 5.47957 15.315 5.70787 15.2851 5.92705C15.2552 6.14623 15.1315 6.33883 14.9223 6.51152C15.0808 6.52646 15.2245 6.56299 15.3548 6.61612C15.4851 6.67175 15.6819 6.78715 15.9451 6.96149L16.6126 7.39735L15.9667 7.75434L15.1987 7.27863C14.9256 7.1101 14.7446 7.00798 14.6574 6.97394C14.5711 6.93576 14.4939 6.92247 14.4233 6.9316C14.3503 6.93991 14.2564 6.9781 14.1294 7.047L14.0223 7.10678L14.7512 8.4293L14.2116 8.72735ZM13.74 6.60367L14.1377 6.38201C14.3984 6.24087 14.5512 6.13958 14.601 6.07483C14.6524 6.01505 14.6757 5.94282 14.6782 5.85731C14.6798 5.77678 14.6524 5.68712 14.601 5.59331C14.5404 5.48704 14.4715 5.41149 14.3851 5.37164C14.2996 5.33345 14.2099 5.3293 14.1128 5.36085C14.0655 5.37745 13.9335 5.44553 13.716 5.56757L13.2967 5.80003L13.74 6.60367Z" fill="white"/>
<path id="Vector_14" d="M16.8102 7.34073L15.5707 3.946L17.6927 3.16809L17.9027 3.74343L16.3585 4.30797L16.6317 5.05516L18.0688 4.53047L18.2788 5.10663L16.8434 5.63132L17.1821 6.55618L18.7811 5.97171L18.9903 6.54538L16.8102 7.34073Z" fill="white"/>
<path id="Vector_15" d="M18.6615 2.89069L19.7665 2.67068C20.0139 2.62087 20.2098 2.60592 20.346 2.62585C20.5361 2.65325 20.7096 2.72963 20.8665 2.86163C21.021 2.99363 21.1546 3.16715 21.265 3.38051C21.373 3.59387 21.4626 3.86618 21.5299 4.1991C21.5863 4.49133 21.6063 4.74704 21.5863 4.97285C21.5631 5.2435 21.4975 5.47347 21.3904 5.66193C21.309 5.80472 21.1878 5.92593 21.0243 6.03054C20.9014 6.10692 20.7262 6.16669 20.5037 6.20986L19.3697 6.43568L18.6615 2.89069ZM19.3863 3.37055L19.8553 5.72087L20.3037 5.63121C20.4714 5.59717 20.5917 5.55815 20.6623 5.52411C20.7536 5.47264 20.8234 5.40871 20.8757 5.32818C20.9271 5.24433 20.957 5.11897 20.9653 4.95293C20.9753 4.78689 20.9512 4.56688 20.8973 4.29208C20.8433 4.01728 20.7819 3.80973 20.7138 3.67108C20.6399 3.53244 20.5602 3.43032 20.4689 3.36224C20.38 3.29666 20.2779 3.25847 20.1584 3.25183C20.0695 3.24768 19.9027 3.26677 19.6569 3.31575L19.3863 3.37055Z" fill="white"/>
<path id="Vector_16" d="M25.3954 4.52799L25.984 4.76543C25.8811 5.15978 25.7241 5.45201 25.5066 5.63964C25.285 5.82478 25.0118 5.91444 24.6847 5.90863C24.2763 5.90033 23.9458 5.7293 23.6934 5.39224C23.4386 5.05933 23.3199 4.60935 23.3323 4.04066C23.3448 3.44125 23.49 2.97882 23.7615 2.65504C24.0322 2.32793 24.3834 2.17103 24.8126 2.18099C25.1878 2.18929 25.4909 2.32544 25.7183 2.59443C25.8537 2.75051 25.9549 2.97467 26.0155 3.26441L25.402 3.42215C25.3713 3.23452 25.2991 3.08509 25.1862 2.97633C25.0716 2.86508 24.9321 2.80863 24.7702 2.80198C24.5394 2.79783 24.351 2.88916 24.2065 3.07761C24.0604 3.26524 23.9807 3.57657 23.9724 4.00247C23.9599 4.45908 24.0214 4.78536 24.1559 4.98128C24.292 5.1797 24.4714 5.28016 24.6947 5.28597C24.8599 5.28763 25.0043 5.23035 25.1256 5.1108C25.2434 4.98627 25.3356 4.79449 25.3954 4.52799Z" fill="white"/>
<path id="Vector_17" d="M26.3444 5.92691L27.0118 2.37195L28.2879 2.61354C28.6075 2.67331 28.8317 2.75052 28.9645 2.83936C29.1007 2.93068 29.1945 3.06766 29.2509 3.24616C29.3107 3.42548 29.3165 3.62141 29.2758 3.83063C29.2285 4.09961 29.1181 4.30551 28.9562 4.45328C28.7902 4.60355 28.5743 4.67578 28.3037 4.6708C28.4191 4.7862 28.5037 4.90492 28.5702 5.0336C28.6341 5.15481 28.7129 5.37067 28.8051 5.67286L29.0409 6.43416L28.3153 6.29552L28.0272 5.44206C27.9242 5.13489 27.8504 4.94311 27.8039 4.8576C27.7607 4.77624 27.7101 4.71729 27.6503 4.67661C27.5897 4.63842 27.4917 4.60687 27.3514 4.58031L27.2277 4.5554L26.9504 6.04148L26.3444 5.92691ZM27.3365 3.99086L27.7839 4.07388C28.0729 4.12867 28.2572 4.14611 28.3335 4.13365C28.4116 4.11622 28.4788 4.07803 28.5303 4.0141C28.5843 3.94935 28.6233 3.86467 28.644 3.75757C28.6665 3.63802 28.6557 3.5359 28.6158 3.45537C28.5768 3.36986 28.5087 3.31008 28.4157 3.2719C28.3684 3.25529 28.2231 3.22042 27.979 3.17393L27.5067 3.08842L27.3365 3.99086Z" fill="white"/>
<path id="Vector_18" d="M29.2318 6.51802L30.4406 3.11084L32.5726 3.86716L32.3675 4.44333L30.82 3.89124L30.551 4.6459L31.9923 5.15731L31.7889 5.73347L30.3476 5.22123L30.018 6.14858L31.6245 6.72059L31.4202 7.29427L29.2318 6.51802Z" fill="white"/>
<path id="Vector_19" d="M32.1881 6.3428L32.7518 6.56696C32.6713 6.79443 32.6538 6.98289 32.7003 7.1315C32.7476 7.28177 32.8523 7.40215 33.0158 7.49015C33.191 7.58396 33.3487 7.6097 33.4832 7.57151C33.616 7.53166 33.7165 7.45196 33.7796 7.3349C33.8194 7.26018 33.8344 7.18546 33.8261 7.11074C33.8145 7.04018 33.7738 6.96131 33.7024 6.87164C33.6526 6.8127 33.5322 6.68651 33.3396 6.50054C33.0914 6.25812 32.9427 6.04558 32.8913 5.85713C32.819 5.59561 32.8514 5.33659 32.9851 5.08503C33.0706 4.92563 33.1902 4.7928 33.3437 4.69317C33.4982 4.59521 33.6667 4.54872 33.851 4.55287C34.0395 4.55702 34.2354 4.61264 34.4396 4.72306C34.7808 4.90405 34.9867 5.1282 35.0664 5.39719C35.1436 5.6612 35.1096 5.94762 34.9602 6.24567L34.4014 5.97917C34.4662 5.80233 34.4786 5.65705 34.4396 5.54663C34.4014 5.43538 34.306 5.33576 34.1532 5.25439C33.9938 5.17137 33.851 5.14149 33.719 5.17137C33.6351 5.18881 33.5745 5.24111 33.5272 5.32247C33.4874 5.39968 33.4807 5.47855 33.5065 5.55908C33.5405 5.66618 33.6684 5.82392 33.895 6.03728C34.1208 6.2548 34.2744 6.43412 34.3607 6.57858C34.4454 6.72719 34.4886 6.88742 34.4861 7.06425C34.4861 7.2386 34.433 7.42705 34.3209 7.62714C34.2263 7.81061 34.0918 7.96005 33.9207 8.0713C33.7514 8.1867 33.5679 8.24149 33.3662 8.23319C33.1677 8.22904 32.9535 8.16511 32.7161 8.03726C32.3782 7.85544 32.164 7.62381 32.0802 7.33739C31.9971 7.05097 32.0312 6.72055 32.1881 6.3428Z" fill="white"/>
<path id="Vector_20" d="M36.5326 8.86994L36.8755 9.40543C36.565 9.67026 36.2661 9.81057 35.9797 9.83797C35.6949 9.8637 35.4168 9.77902 35.1553 9.58226C34.8299 9.33735 34.6588 9.00444 34.6456 8.58684C34.6331 8.16841 34.7958 7.73422 35.137 7.27677C35.494 6.79525 35.8809 6.50218 36.2935 6.39426C36.7012 6.28799 37.0789 6.36022 37.4218 6.62007C37.7232 6.84423 37.8875 7.13148 37.9191 7.48017C37.9382 7.68689 37.8917 7.92599 37.7746 8.1983L37.1819 7.97249C37.2657 7.80229 37.2898 7.6404 37.2657 7.48266C37.235 7.32658 37.1569 7.20122 37.0216 7.10077C36.8423 6.96461 36.6364 6.92808 36.4081 6.99782C36.1781 7.06839 35.9365 7.27345 35.6792 7.61716C35.4052 7.98162 35.2674 8.28464 35.2657 8.52291C35.2599 8.75952 35.3463 8.94466 35.5256 9.08082C35.6576 9.17961 35.8095 9.21365 35.9772 9.18542C36.1466 9.15719 36.3301 9.05093 36.5326 8.86994Z" fill="white"/>
<path id="Vector_21" d="M36.4961 10.5686L39.0805 8.04065L40.6613 9.65624L40.2237 10.0838L39.0764 8.90822L38.5044 9.46446L39.5753 10.5578L39.1395 10.9871L38.0693 9.89285L37.3628 10.5819L38.555 11.8015L38.1192 12.2282L36.4961 10.5686Z" fill="white"/>
<path id="Vector_22" d="M38.3724 12.5304L41.3155 10.4266L41.6642 10.9148L40.4206 13.3515L42.3965 11.9409L42.7277 12.4025L39.7846 14.5055L39.4268 14.0023L40.6397 11.6097L38.7029 12.9912L38.3724 12.5304Z" fill="white"/>
<path id="Vector_23" d="M40.3507 15.5716L43.0331 14.2067L42.623 13.4056L43.1659 13.1283L44.2643 15.2794L43.7205 15.5567L43.3104 14.7547L40.6321 16.1204L40.3507 15.5716Z" fill="white"/>
<path id="Vector_24" d="M42.6372 17.7765L42.863 18.3436C42.6405 18.439 42.4927 18.5561 42.4138 18.6922C42.3358 18.8292 42.3217 18.987 42.3698 19.168C42.423 19.3581 42.5077 19.4901 42.6314 19.5623C42.7534 19.6312 42.8788 19.652 43.0074 19.6154C43.0888 19.5939 43.1519 19.5532 43.1992 19.4959C43.2449 19.4403 43.2756 19.3548 43.2922 19.2418C43.3022 19.1646 43.3088 18.9903 43.3121 18.723C43.3163 18.3776 43.3702 18.1236 43.4707 17.9575C43.616 17.7251 43.8219 17.569 44.0983 17.4967C44.2752 17.4453 44.4512 17.4453 44.6288 17.4884C44.8065 17.5316 44.9568 17.6213 45.0805 17.7616C45.2058 17.8986 45.2996 18.082 45.3611 18.3079C45.4624 18.6773 45.4416 18.982 45.2996 19.2211C45.1552 19.4618 44.9277 19.6312 44.6097 19.7275L44.4205 19.1397C44.5923 19.0633 44.7085 18.9753 44.7633 18.8707C44.819 18.7653 44.8231 18.6283 44.7758 18.4623C44.7293 18.2871 44.6537 18.1634 44.5417 18.0912C44.4694 18.0422 44.3872 18.0289 44.2992 18.053C44.2146 18.0779 44.154 18.1252 44.1108 18.1974C44.0568 18.2929 44.0286 18.498 44.0269 18.8093C44.0261 19.1223 44.002 19.3572 43.9522 19.5191C43.9057 19.681 43.8161 19.8238 43.6882 19.9417C43.5612 20.0629 43.386 20.1526 43.1635 20.2124C42.9634 20.2672 42.7658 20.2696 42.5666 20.2223C42.364 20.1775 42.1996 20.082 42.0668 19.9326C41.9356 19.7831 41.8327 19.5789 41.7646 19.3224C41.6625 18.9521 41.6866 18.6358 41.8368 18.3801C41.9896 18.1236 42.2578 17.9235 42.6372 17.7765Z" fill="white"/>
<path id="Vector_25" d="M43.9937 20.5585C44.3573 20.5186 44.6703 20.5311 44.9293 20.5992C45.1186 20.6457 45.293 20.7245 45.4524 20.8266C45.6093 20.9312 45.7338 21.0491 45.8185 21.1828C45.9331 21.3621 46.0045 21.5747 46.0319 21.8229C46.0792 22.2704 45.9522 22.6456 45.6516 22.9487C45.3536 23.2508 44.9127 23.4343 44.325 23.4991C43.7463 23.5605 43.2806 23.4775 42.9227 23.245C42.5649 23.0167 42.364 22.678 42.3175 22.2322C42.2652 21.7805 42.3922 21.4045 42.687 21.1023C42.9867 20.8017 43.4217 20.6207 43.9937 20.5585ZM44.0859 21.1894C43.6774 21.2343 43.3802 21.3472 43.1859 21.5265C42.9958 21.7075 42.9111 21.9217 42.9385 22.1624C42.9618 22.4074 43.0904 22.595 43.3129 22.732C43.5379 22.864 43.86 22.9071 44.2751 22.864C44.6878 22.8191 44.9866 22.7104 45.1726 22.5352C45.3586 22.3625 45.4391 22.1492 45.4109 21.8951C45.3843 21.6461 45.2598 21.4534 45.0381 21.3198C44.8164 21.1894 44.4993 21.1454 44.0859 21.1894Z" fill="white"/>
<path id="Vector_26" d="M43.7463 26.0744L43.489 26.6572C43.0971 26.5409 42.8115 26.3741 42.6322 26.1483C42.4529 25.9224 42.3723 25.646 42.3939 25.3172C42.4139 24.9121 42.5973 24.5858 42.9427 24.345C43.2856 24.1018 43.738 23.998 44.3059 24.0337C44.9061 24.0677 45.3628 24.2247 45.6774 24.5069C45.9937 24.7909 46.139 25.147 46.1116 25.5746C46.0917 25.9532 45.9439 26.2462 45.6708 26.4646C45.5072 26.5966 45.2806 26.6862 44.9917 26.7394L44.8522 26.1184C45.0423 26.0943 45.1917 26.027 45.3071 25.9191C45.4225 25.8104 45.4815 25.6742 45.4923 25.5098C45.508 25.2815 45.4225 25.0914 45.2391 24.9386C45.0572 24.785 44.7501 24.6954 44.3217 24.6696C43.8676 24.6439 43.538 24.6954 43.3362 24.8232C43.1345 24.9511 43.0299 25.1263 43.0174 25.3504C43.0058 25.514 43.0589 25.6609 43.1735 25.7871C43.2939 25.91 43.4848 26.0055 43.7463 26.0744Z" fill="white"/>
<path id="Vector_27" d="M42.1734 27.6006L45.7357 28.2133L45.8403 27.6054L42.278 26.9927L42.1734 27.6006Z" fill="white"/>
<path id="Vector_28" d="M42.1001 28.0961L45.5753 29.084L44.9585 31.26L44.3732 31.0915L44.8215 29.5124L44.0527 29.2916L43.636 30.7669L43.0482 30.5983L43.4674 29.1247L42.5177 28.8557L42.0519 30.4954L41.465 30.3302L42.1001 28.0961Z" fill="white"/>
<path id="Vector_29" d="M41.0349 31.3297L43.7796 32.5526L44.1424 31.7307L44.7019 31.9773L43.7206 34.1865L43.1619 33.9357L43.5288 33.1163L40.7833 31.8918L41.0349 31.3297Z" fill="white"/>
<path id="Vector_30" d="M39.8526 33.6359L41.1419 34.4445L43.5113 34.6064L43.1244 35.2257L41.528 35.0738L42.3665 36.4295L41.9895 37.0331L40.8073 34.965L39.5247 34.1597L39.8526 33.6359Z" fill="white"/>
<path id="Vector_31" d="M17.6213 40.9012L18.7413 41.3985C18.9613 41.4965 19.1232 41.5795 19.2211 41.6526C19.3216 41.7215 19.4004 41.8128 19.4561 41.9149C19.5084 42.0253 19.5416 42.1482 19.5474 42.2885C19.5532 42.428 19.5241 42.5683 19.4602 42.7119C19.3905 42.8647 19.2942 42.9925 19.1663 43.0913C19.0385 43.186 18.8998 43.2424 18.7504 43.2532C18.8932 43.3869 18.9787 43.5446 19.0086 43.7273C19.036 43.9083 19.0086 44.0967 18.9231 44.2844C18.8591 44.4388 18.7653 44.5699 18.6416 44.6853C18.5179 44.8032 18.3859 44.8821 18.2464 44.9195C18.1078 44.9576 17.9584 44.9543 17.7981 44.9095C17.6985 44.8779 17.4694 44.7841 17.1082 44.6256L16.1552 44.203L17.6213 40.9012ZM17.3573 43.0133L16.9663 43.9L17.4893 44.1316C17.6927 44.2213 17.8264 44.2719 17.8853 44.2835C17.9791 44.3026 18.0671 44.2893 18.1501 44.2437C18.2348 44.1955 18.3029 44.1142 18.3544 43.9954C18.3967 43.8975 18.4133 43.8061 18.4058 43.719C18.3942 43.6318 18.3585 43.5529 18.2954 43.4882C18.2307 43.4218 18.0729 43.3304 17.8156 43.2192L17.3573 43.0133ZM17.9401 41.7032L17.6039 42.4645L17.975 42.6281C18.1933 42.7269 18.3311 42.7842 18.3892 42.7958C18.4914 42.8273 18.5843 42.8224 18.669 42.7833C18.7545 42.7393 18.8201 42.6671 18.8658 42.56C18.9114 42.4587 18.9239 42.3657 18.9056 42.2844C18.8832 42.1955 18.8301 42.1258 18.7437 42.0702C18.6898 42.0403 18.532 41.9631 18.2655 41.846L17.9401 41.7032Z" fill="white"/>
<path id="Vector_32" d="M20.3078 42.037L21.4103 42.2603C21.6594 42.3085 21.8429 42.3707 21.9666 42.4438C22.1285 42.5376 22.2571 42.6779 22.3518 42.8589C22.4439 43.0399 22.5004 43.2499 22.522 43.4899C22.5394 43.7281 22.5178 44.0121 22.4506 44.3475C22.3933 44.6397 22.3119 44.8829 22.2082 45.0822C22.082 45.3263 21.9325 45.5139 21.7623 45.6451C21.6336 45.7439 21.4718 45.812 21.28 45.8418C21.1372 45.8659 20.9537 45.8551 20.7337 45.812L19.5963 45.582L20.3078 42.037ZM20.7943 42.7576L20.3211 45.103L20.7711 45.1926C20.9388 45.2275 21.0633 45.2408 21.1422 45.2341C21.2459 45.2225 21.3356 45.1926 21.4153 45.137C21.4933 45.0789 21.5681 44.9751 21.6403 44.8257C21.7158 44.6746 21.7798 44.4612 21.8329 44.1906C21.886 43.9124 21.9093 43.7007 21.8985 43.5438C21.886 43.3902 21.8537 43.2649 21.7972 43.1669C21.7391 43.0689 21.6552 42.9967 21.5506 42.9444C21.4718 42.9021 21.3082 42.8589 21.0625 42.8099L20.7943 42.7576Z" fill="white"/>
<path id="Vector_33" d="M23.2518 46.1788L23.187 42.5616L24.4838 42.5417C24.8101 42.5359 25.0475 42.5616 25.1953 42.6272C25.3456 42.6911 25.4643 42.8024 25.5564 42.9684C25.6478 43.1303 25.6942 43.3196 25.6984 43.5354C25.7025 43.8094 25.6403 44.0303 25.5108 44.2096C25.3788 44.3906 25.1812 44.5035 24.9147 44.5549C25.0508 44.6446 25.1588 44.7442 25.2476 44.853C25.3348 44.9593 25.456 45.1544 25.6062 45.4333L25.9931 46.1323L25.2551 46.144L24.7976 45.3652C24.6366 45.0855 24.5253 44.9136 24.4664 44.8405C24.4074 44.7683 24.3427 44.7185 24.2787 44.6911C24.2107 44.6679 24.1077 44.6571 23.9649 44.6571H23.8396L23.8653 46.168L23.2518 46.1788ZM23.8313 44.0809L24.2829 44.0759C24.5768 44.0701 24.7619 44.0502 24.835 44.0203C24.9072 43.9896 24.9645 43.9398 25.0035 43.8634C25.0467 43.7936 25.0625 43.7015 25.06 43.5927C25.0583 43.469 25.0284 43.3719 24.9745 43.2955C24.9172 43.2233 24.8408 43.1768 24.7403 43.1602C24.6897 43.1527 24.5419 43.1511 24.2929 43.1552L23.813 43.1643L23.8313 44.0809Z" fill="white"/>
<path id="Vector_34" d="M28.5478 44.2211L29.1812 44.2934C29.1845 44.7035 29.1032 45.0248 28.9421 45.2614C28.7802 45.5005 28.5378 45.6582 28.219 45.7346C27.823 45.8309 27.461 45.7504 27.1273 45.4922C26.796 45.2365 26.5652 44.8305 26.4307 44.2809C26.2921 43.6965 26.3095 43.2116 26.4888 42.8281C26.6682 42.4437 26.9604 42.1988 27.3788 42.1C27.7466 42.0128 28.0704 42.0676 28.361 42.2643C28.5312 42.3806 28.6848 42.5707 28.8209 42.8355L28.2696 43.151C28.1899 42.9758 28.0812 42.848 27.9425 42.7708C27.8064 42.6944 27.6561 42.6753 27.4984 42.7143C27.2775 42.7666 27.119 42.9036 27.0268 43.1236C26.933 43.3436 26.9372 43.6624 27.0384 44.0792C27.1447 44.5225 27.2883 44.8189 27.4702 44.9766C27.6545 45.1302 27.8487 45.1817 28.0679 45.1302C28.2281 45.092 28.3535 44.9966 28.4382 44.848C28.522 44.701 28.5594 44.4893 28.5478 44.2211Z" fill="white"/>
<path id="Vector_35" d="M29.8346 43.9829L30.3526 43.66C30.4871 43.8584 30.6291 43.9871 30.7777 44.0377C30.9263 44.0908 31.084 44.0767 31.2542 43.9954C31.4319 43.9098 31.5448 43.8003 31.5938 43.6674C31.6428 43.5354 31.637 43.4067 31.578 43.288C31.5415 43.2108 31.4917 43.1552 31.4294 43.1211C31.3655 43.0838 31.275 43.0713 31.1604 43.0771C31.0832 43.0813 30.9105 43.1037 30.6465 43.1469C30.3078 43.2017 30.0446 43.1984 29.8645 43.1294C29.6104 43.0307 29.422 42.8522 29.2966 42.5956C29.2169 42.4296 29.1829 42.2577 29.1945 42.0759C29.2036 41.8924 29.265 41.7289 29.378 41.5811C29.4942 41.4325 29.6552 41.308 29.8694 41.2075C30.2148 41.0415 30.517 41.0058 30.7777 41.1046C31.0392 41.1984 31.2468 41.3985 31.3995 41.6924L30.8566 41.9829C30.7511 41.8302 30.6424 41.7314 30.5303 41.6948C30.4149 41.6583 30.2796 41.6799 30.1251 41.7554C29.9641 41.8335 29.857 41.9315 29.8014 42.0552C29.7665 42.1349 29.769 42.2154 29.8097 42.2984C29.8454 42.3764 29.906 42.4304 29.9865 42.457C30.0903 42.4943 30.2953 42.4835 30.6025 42.4287C30.9089 42.3731 31.1438 42.3565 31.3148 42.3731C31.4809 42.3922 31.6386 42.4545 31.7798 42.5583C31.9201 42.6654 32.0396 42.8198 32.1384 43.024C32.2272 43.2116 32.2679 43.4076 32.258 43.6135C32.2505 43.8169 32.1832 43.9978 32.0604 44.1548C31.9383 44.3108 31.7573 44.4462 31.5166 44.5632C31.1712 44.7301 30.8549 44.7616 30.5759 44.662C30.2953 44.5574 30.0513 44.3349 29.8346 43.9829Z" fill="white"/>
<path id="Vector_36" d="M17.6295 24.248C17.6295 17.8106 22.8466 12.5943 29.284 12.5943C30.7859 12.5943 32.223 12.8808 33.5422 13.4005C31.1288 11.413 28.0346 10.2191 24.6623 10.2191C16.9388 10.2191 10.6774 16.4797 10.6774 24.2032C10.6774 31.9258 16.9388 38.1864 24.6623 38.1864C27.9316 38.1864 30.9403 37.0606 33.3197 35.1819C32.0611 35.6443 30.702 35.9008 29.2849 35.9008C22.8474 35.9017 17.6295 30.6863 17.6295 24.248Z" fill="#ED1C24"/>
<path id="Vector_37" d="M38.4071 39.2507C38.4071 40.1548 37.6749 40.8854 36.7708 40.8854C35.8692 40.8854 35.1361 40.1548 35.1361 39.2507C35.1361 38.3491 35.8692 37.6177 36.7708 37.6177C37.6749 37.6177 38.4071 38.3483 38.4071 39.2507Z" fill="white"/>
<path id="Vector_38" d="M13.2461 39.2507C13.2461 40.1548 12.5122 40.8854 11.6123 40.8854C10.7082 40.8854 9.97595 40.1548 9.97595 39.2507C9.97595 38.3491 10.7082 37.6177 11.6123 37.6177C12.5122 37.6177 13.2461 38.3483 13.2461 39.2507Z" fill="white"/>
</g>
</g>
</g>
</g>
</g>
<defs>
<filter id="filter0_d_0_1" x="-19" y="-30.9" width="1926" height="87" filterUnits="userSpaceOnUse" color-interpolation-filters="sRGB">
<feFlood flood-opacity="0" result="BackgroundImageFix"/>
<feColorMatrix in="SourceAlpha" type="matrix" values="0 0 0 0 0 0 0 0 0 0 0 0 0 0 0 0 0 0 127 0" result="hardAlpha"/>
<feOffset dy="0.1"/>
<feGaussianBlur stdDeviation="2"/>
<feComposite in2="hardAlpha" operator="out"/>
<feColorMatrix type="matrix" values="0 0 0 0 0 0 0 0 0 0 0 0 0 0 0 0 0 0 0.2 0"/>
<feBlend mode="normal" in2="BackgroundImageFix" result="effect1_dropShadow_0_1"/>
<feBlend mode="normal" in="SourceGraphic" in2="effect1_dropShadow_0_1" result="shape"/>
</filter>
<clipPath id="clip0_0_1">
<rect width="1920" height="1080" fill="white" transform="translate(-17 -27)"/>
</clipPath>
</defs>
</svg>
