<svg width="213" height="31" viewBox="0 0 213 31" fill="none" xmlns="http://www.w3.org/2000/svg">
<path d="M11.3429 18.3892V28.3102H9.73396C9.08972 27.2832 7.93406 26.3168 6.26119 25.4127C4.58915 24.5086 3.12964 24.0329 1.88183 23.9823L1.36295 22.0662C2.14667 21.4842 3.4775 20.7976 5.36125 20.0047C6.06941 19.7084 7.45171 19.1687 9.51063 18.3892H0.512817V16.7238H12.6953V18.3892H11.3429ZM9.51063 20.4805C8.32592 20.8997 6.65803 21.6145 4.51194 22.6282C6.41063 23.3804 8.07935 24.3442 9.51063 25.5165V20.4805Z" fill="black"/>
<path d="M15.1195 18.3892V28.2936H13.2856V18.3892H11.6559V16.7238H16.6006V18.3892H15.1195Z" fill="black"/>
<path d="M19.6351 23.0524C18.7352 23.0524 18.0162 22.7676 17.4782 22.1931C16.9427 21.6194 16.6754 20.8764 16.6754 19.9623C16.6754 19.1346 16.9519 18.4389 17.5065 17.8702C18.061 17.3032 18.7543 17.0176 19.5795 17.0176C20.3931 17.0176 21.0681 17.3513 21.5994 18.0188C22.0917 18.6348 22.3391 19.3638 22.3391 20.2039C22.3391 21.0673 22.1017 21.7589 21.6268 22.277C21.1519 22.7933 20.4877 23.0524 19.6351 23.0524ZM20.0992 27.9224C18.9759 26.9485 17.8776 26.1889 16.8041 25.6451L16.8232 23.0358C20.1166 25.4401 22.3034 27.3844 23.3752 28.8655V30.7916C22.8082 30.2852 21.7156 29.3296 20.0992 27.9224ZM19.6011 18.8515C19.2424 18.8515 18.9419 18.9553 18.7011 19.167C18.4595 19.3754 18.3408 19.6593 18.3408 20.018C18.3408 20.35 18.462 20.6531 18.7086 20.9237C18.9568 21.1969 19.2457 21.3313 19.5795 21.3313C19.8775 21.3313 20.1366 21.2201 20.3574 20.9984C20.5824 20.7776 20.692 20.5169 20.692 20.2197C20.692 19.9001 20.5857 19.5904 20.3765 19.2948C20.1689 18.9985 19.9074 18.8515 19.6011 18.8515Z" fill="black"/>
<path d="M34.9665 18.3892V28.2936H33.1874C33.1874 28.2545 33.2131 27.871 33.2596 27.1329C33.2861 26.7668 33.2986 26.3808 33.2986 25.9748C33.2986 23.8295 32.7997 22.7569 31.7992 22.7569C31.4174 22.7569 31.0952 22.9877 30.8379 23.4485C30.6262 23.8113 30.5033 24.2039 30.4668 24.6274H28.4668C28.4286 24.1325 28.3057 23.7 28.0965 23.3306C27.8383 22.8499 27.4905 22.6075 27.0596 22.6075C26.1082 22.6075 25.6358 23.2268 25.6358 24.458C25.6358 25.4841 26.319 25.9964 27.6914 25.9964C27.9255 25.9964 28.1712 25.9773 28.4294 25.9407L27.8034 27.8303C27.4564 27.8668 27.2198 27.8859 27.0986 27.8859C26.0733 27.8859 25.2364 27.5414 24.588 26.8581C23.9413 26.174 23.6159 25.3189 23.6159 24.2936C23.6159 23.2426 23.9305 22.3908 24.5598 21.7299C25.1891 21.0682 26.0243 20.7403 27.0737 20.7403C28.0068 20.7403 28.8213 21.2268 29.5128 22.2023C30.2501 21.2268 31.0205 20.7403 31.8217 20.7403C32.3148 20.7403 32.7706 20.9985 33.1882 21.5166V18.3892H22.5607V16.7238H36.2417V18.3892H34.9665Z" fill="black"/>
<path d="M38.7225 18.3892V28.2936H36.8902V18.3892H35.2605V16.7238H40.2027V18.3892H38.7225Z" fill="black"/>
<path d="M44.8511 29.0149C43.3077 29.0149 42.2774 28.7443 41.7602 28.1997C40.6361 27.015 40.0749 25.5596 40.0749 23.8336C40.0749 22.8963 40.353 21.9249 40.9068 20.9254C41.2911 20.2338 41.913 19.3903 42.7789 18.3907H39.2422V16.7253H46.0175V18.3152C44.9864 18.6988 44.0582 19.4028 43.2338 20.4264C42.348 21.5015 41.908 22.5601 41.908 23.6094C41.908 24.8049 42.1048 25.6966 42.4966 26.2761C42.974 26.9801 43.7868 27.3296 44.9291 27.3296C45.1757 27.3296 45.6024 27.1079 46.2027 26.6638V28.6646C45.7344 28.8987 45.282 29.0149 44.8511 29.0149Z" fill="black"/>
<path d="M46.5346 18.3892V22.0155C48.293 20.9072 49.9509 20.0496 51.5117 19.4444L52.997 21.3862C52.3312 23.0284 51.9966 24.2753 51.9966 25.1263C51.9966 25.8918 52.2116 26.8789 52.6433 28.0877L51.2012 28.756C50.6342 27.2865 50.3486 26.2571 50.3486 25.6643C50.3486 24.4547 50.4557 23.2392 50.6633 22.0155C49.4661 22.5593 47.931 23.6087 46.0539 25.1637L44.7024 23.9051V18.3892H43.7036V16.7238H53.8662V18.3892H46.5346Z" fill="black"/>
<path d="M63.2145 18.3891V28.3101H61.383V20.6365C61.383 20.1649 61.2402 19.7249 60.9579 19.3156C60.6474 18.8573 60.2722 18.6298 59.8297 18.6298C59.4827 18.6298 59.1854 18.7535 58.9297 19.0043C58.6765 19.255 58.5495 19.5555 58.5495 19.9042C58.5495 20.8938 58.8716 21.3861 59.5125 21.3861C59.7359 21.3861 60.1809 21.1346 60.8467 20.629V22.7203C60.3785 23.2151 59.8288 23.4617 59.1979 23.4617C58.6176 23.4617 58.0456 23.0524 57.4769 22.2379C56.9596 23.0906 56.2847 23.5181 55.4586 23.5181C54.7662 23.5181 54.2291 23.2026 53.8497 22.5733V20.4264C54.4657 21.1296 54.929 21.4816 55.2361 21.4816C55.9269 21.4816 56.2747 20.9254 56.2747 19.8162C56.2747 18.8789 55.5259 18.4007 54.0332 18.3907H53.7949C53.6579 18.3907 53.5599 18.3907 53.496 18.3907C53.3125 18.3907 53.0726 18.3907 52.7754 18.3907V16.7253H55.2917C56.0605 16.7253 56.7679 17.2035 57.4212 18.1666C57.9036 17.2035 58.5935 16.7253 59.4959 16.7253C60.136 16.7253 60.7412 17.0317 61.3091 17.6494V16.7253H64.4556V18.3907H63.2145V18.3891Z" fill="black"/>
<path d="M70.9919 23.5896C70.9919 24.2828 71.1147 24.9163 71.3613 25.4982C71.695 26.2761 72.165 26.6639 72.7669 26.6639C73.0392 26.6639 73.4053 26.5236 73.8611 26.2371L74.4721 27.9216C73.8785 28.2545 73.3356 28.4206 72.8424 28.4206C70.4971 28.4206 69.324 26.634 69.324 23.0516C69.324 21.1147 70.5884 19.0043 73.1205 16.7238H75.3787V18.3526C74.1317 18.5361 73.0881 19.1363 72.2513 20.1567C71.4111 21.1762 70.9919 22.3194 70.9919 23.5896Z" fill="black"/>
<path d="M84.5425 18.3892V28.3102H82.9136C82.2976 27.2948 81.1677 26.3442 79.5272 25.4576C77.885 24.575 76.4521 24.1126 75.2325 24.0761L74.7311 22.1417C76.7427 20.8408 79.3836 19.588 82.6554 18.3892H73.8801V16.7238H85.6915V18.3892H84.5425ZM79.6376 28.7742C79.1171 28.2437 78.3724 27.739 77.3969 27.2575L78.1922 25.7382C79.1561 26.1441 80.0195 26.7627 80.7858 27.5887L79.6376 28.7742ZM82.7111 20.4805C80.9934 21.0998 79.3778 21.8362 77.8601 22.7021C79.6127 23.3422 81.2291 24.2828 82.7111 25.5173V20.4805Z" fill="black"/>
<path d="M92.3 18.3891V21.9789L95.7263 20.609L97.0422 21.8328C97.1144 22.3741 97.1534 22.8265 97.1534 23.1844C97.1534 24.7626 96.7259 26.0154 95.8741 26.9419C95.0223 27.8667 93.8143 28.3292 92.2444 28.3292C90.6537 28.3292 89.2341 27.6451 87.9888 26.2752C87 25.2001 86.1938 23.7871 85.5629 22.0345L87.044 21.0341C88.3507 24.6895 90.1232 26.5151 92.3548 26.5151C93.1452 26.5151 93.8301 26.2121 94.4104 25.6086C94.9916 25.0058 95.2822 24.3026 95.2822 23.4982C95.2822 23.2275 95.2514 22.9726 95.1908 22.7385L92.0061 24.1275L90.4686 22.9245V18.3899H84.6912V16.7245H98.0235V18.3899L92.3 18.3891Z" fill="black"/>
<path d="M115.054 15.4435C112.795 14.0138 110.937 13.2974 109.482 13.2974C108.296 13.2974 107.328 13.568 106.573 14.1118C105.745 14.7046 105.302 15.5746 105.242 16.7245H106.592V18.3899H105.242V28.2553H103.37V18.3891H102.001V16.7237H103.37C103.434 15.03 104.056 13.7291 105.242 12.8167C106.33 11.9632 107.746 11.5365 109.49 11.5365C110.589 11.5365 111.72 11.7905 112.883 12.2953C113.699 12.654 114.76 13.2592 116.071 14.1102L115.054 15.4435Z" fill="black"/>
<path d="M105.389 18.3892V16.7238H122.274V18.3892H105.389ZM118.885 24.9046C118.762 24.9046 118.569 24.8689 118.312 24.7942L117.811 23.035C118.145 23.0724 118.374 23.0898 118.497 23.0898C119.091 23.0898 119.384 22.864 119.384 22.4157C119.384 21.925 119.109 21.6826 118.557 21.6826C118.177 21.6826 117.747 21.837 117.269 22.1467C117.157 22.2197 116.783 22.5111 116.145 23.0192V28.497H114.46C114.138 28.0403 113.916 27.7489 113.792 27.6269C113.512 27.3413 113.19 27.2002 112.832 27.2002C112.597 27.2002 112.147 27.3372 111.481 27.6161C110.812 27.8926 110.31 28.0312 109.964 28.0312C108.556 28.0312 107.341 26.8581 106.316 24.5128L107.464 23.1994C107.861 24.2122 108.219 24.9221 108.541 25.3272C108.973 25.8727 109.536 26.1425 110.23 26.1425C110.465 26.1425 110.855 26.0204 111.401 25.773C111.942 25.5273 112.358 25.4044 112.641 25.4044C113.246 25.4044 113.806 25.6128 114.313 26.0304V20.6066C114.178 20.4356 113.989 20.2264 113.754 19.9798C113.306 20.0529 112.875 20.2447 112.467 20.5519C111.993 20.898 111.758 21.275 111.758 21.6818C111.758 21.7324 111.788 21.7557 111.851 21.7557C112.022 21.7557 112.301 21.4983 112.684 20.9769L113.792 22.404C113.251 23.1429 112.641 23.5149 111.962 23.5149C110.838 23.5149 110.276 22.9213 110.276 21.7357C110.276 20.7752 110.66 19.9591 111.426 19.2924C112.151 18.6523 113.005 18.3277 113.982 18.3277C114.535 18.3277 114.985 18.5162 115.333 18.8856C115.467 19.0317 115.738 19.4352 116.146 20.0903V21.1621C117.049 20.3609 117.948 19.9599 118.85 19.9599C119.554 19.9599 120.133 20.209 120.589 20.7079C121.045 21.2094 121.274 21.8113 121.274 22.5136C121.274 23.2052 121.048 23.7764 120.6 24.2264C120.147 24.6805 119.577 24.9046 118.885 24.9046Z" fill="black"/>
<path d="M126.809 29.0149C125.264 29.0149 124.237 28.7443 123.718 28.1997C122.594 27.015 122.031 25.5596 122.031 23.8336C122.031 22.8963 122.31 21.9249 122.866 20.9254C123.249 20.2338 123.87 19.3903 124.735 18.3907H121.2V16.7253H127.977V18.3152C126.944 18.6988 126.016 19.4028 125.192 20.4264C124.31 21.5015 123.866 22.5601 123.866 23.6094C123.866 24.8049 124.062 25.6966 124.454 26.2761C124.934 26.9801 125.747 27.3296 126.89 27.3296C127.136 27.3296 127.561 27.1079 128.16 26.6638V28.6646C127.691 28.8987 127.241 29.0149 126.809 29.0149Z" fill="black"/>
<path d="M135.586 18.3891V28.1822H133.752V22.9843C133.752 22.7103 133.665 22.4587 133.492 22.2313C133.319 22.003 133.103 21.8867 132.843 21.8867C132.435 21.8867 131.939 22.3998 131.36 23.4218C130.999 24.1383 130.647 24.8556 130.3 25.572C129.705 26.4222 128.971 26.8481 128.093 26.8481C127.645 26.8481 127.04 26.6015 126.272 26.11V24.0901C126.976 24.7186 127.527 25.0349 127.924 25.0349C128.327 25.0349 128.736 24.6646 129.142 23.9224C129.513 23.2574 129.697 22.6954 129.697 22.2379C129.697 20.6863 128.78 19.4011 126.941 18.3899H125.477V16.7245H136.659V18.3899L135.586 18.3891ZM133.752 18.3891H129.844C130.54 19.0557 131.004 19.8386 131.24 20.741C131.713 20.3077 132.182 20.0926 132.655 20.0926C133.087 20.0926 133.454 20.252 133.752 20.5742V18.3891Z" fill="black"/>
<path d="M141.248 24.0162V22.9934C140.403 21.8618 139.617 21.2956 138.886 21.2956C138.165 21.2956 137.806 21.577 137.806 22.1407C137.806 22.4139 137.854 22.5924 137.953 22.6745C138.052 22.7551 138.244 22.8149 138.527 22.8514L139.026 22.5542L139.713 24.1465C139.145 24.4437 138.731 24.5923 138.471 24.5923C137.794 24.5923 137.222 24.3541 136.759 23.8792C136.296 23.4035 136.066 22.8273 136.066 22.1499C136.066 21.4085 136.337 20.8157 136.882 20.3724C137.377 19.9515 138.002 19.7414 138.757 19.7414C139.328 19.7414 139.806 19.8593 140.19 20.0951C140.438 20.2429 140.793 20.5642 141.248 21.0573V18.3923H135.6L135.62 16.7269H143.08V23.8916L141.248 24.0162Z" fill="black"/>
<path d="M143.1 18.3891V26.4977L143.545 26.5152C144.532 26.5525 145.569 26.2802 146.656 25.6999C147.852 25.0606 148.451 24.2885 148.451 23.3869C148.451 22.4247 148 21.9432 147.1 21.9432C146.851 21.9432 146.259 22.1947 145.321 22.702L144.581 21.0914C144.939 20.8199 145.416 20.5875 146.016 20.3973C146.615 20.2064 147.148 20.1101 147.618 20.1101C148.494 20.1101 149.179 20.4322 149.673 21.0731C150.119 21.6534 150.342 22.3932 150.342 23.2956C150.342 24.4687 149.785 25.5172 148.674 26.4438C147.71 27.2449 146.605 27.7754 145.36 28.0344C144.519 28.2096 143.143 28.2951 141.232 28.2951V18.3907H140.157V16.7253H148.009V16.6464C148.009 15.9939 147.722 15.4576 147.154 15.0367C146.648 14.6556 146.057 14.463 145.377 14.463C144.477 14.463 143.155 14.9329 141.415 15.871L140.806 14.463C142.519 13.402 144.094 12.8723 145.526 12.8723C146.675 12.8723 147.663 13.231 148.488 13.9532C149.315 14.6764 149.765 15.5979 149.84 16.7237H151.339V18.3891H143.1Z" fill="black"/>
<path d="M157.965 23.5896C157.965 24.2828 158.088 24.9163 158.337 25.4982C158.669 26.2761 159.138 26.6639 159.744 26.6639C160.014 26.6639 160.38 26.5236 160.835 26.2371L161.446 27.9216C160.854 28.2545 160.311 28.4206 159.814 28.4206C157.472 28.4206 156.298 26.634 156.298 23.0516C156.298 21.1147 157.564 19.0043 160.094 16.7238H162.352V18.3526C161.108 18.5361 160.062 19.1363 159.225 20.1567C158.385 21.1762 157.965 22.3194 157.965 23.5896Z" fill="black"/>
<path d="M170.759 18.3891V28.1822H168.926V22.9843C168.926 22.7103 168.84 22.4587 168.665 22.2313C168.493 22.003 168.277 21.8867 168.018 21.8867C167.609 21.8867 167.113 22.3998 166.534 23.4218C166.174 24.1383 165.823 24.8556 165.476 25.572C164.881 26.4222 164.146 26.8481 163.268 26.8481C162.822 26.8481 162.214 26.6015 161.447 26.11V24.0901C162.151 24.7186 162.7 25.0349 163.097 25.0349C163.501 25.0349 163.911 24.6646 164.317 23.9224C164.688 23.2574 164.874 22.6954 164.874 22.2379C164.874 20.6863 163.955 19.4011 162.115 18.3899H160.654V16.7245H171.836V18.3899L170.759 18.3891ZM168.926 18.3891H165.019C165.715 19.0557 166.179 19.8386 166.414 20.741C166.888 20.3077 167.357 20.0926 167.829 20.0926C168.262 20.0926 168.629 20.252 168.926 20.5742V18.3891Z" fill="black"/>
<path d="M174.61 18.3892V28.2936H172.776V18.3892H171.147V16.7238H176.09V18.3892H174.61Z" fill="black"/>
<path d="M185.034 18.3891V28.1822H183.199V22.9843C183.199 22.7103 183.114 22.4587 182.939 22.2313C182.765 22.003 182.55 21.8867 182.291 21.8867C181.881 21.8867 181.386 22.3998 180.808 23.4218C180.447 24.1383 180.096 24.8556 179.75 25.572C179.154 26.4222 178.418 26.8481 177.54 26.8481C177.095 26.8481 176.487 26.6015 175.719 26.11V24.0901C176.425 24.7186 176.975 25.0349 177.37 25.0349C177.775 25.0349 178.184 24.6646 178.591 23.9224C178.961 23.2574 179.146 22.6954 179.146 22.2379C179.146 20.6863 178.229 19.4011 176.387 18.3899H174.926V16.7245H186.108V18.3899L185.034 18.3891ZM183.199 18.3891H179.294C179.988 19.0557 180.453 19.8386 180.687 20.741C181.161 20.3077 181.631 20.0926 182.105 20.0926C182.537 20.0926 182.902 20.252 183.199 20.5742V18.3891Z" fill="black"/>
<path d="M188.884 18.3892V28.2936H187.05V18.3892H185.421V16.7238H190.364V18.3892H188.884Z" fill="black"/>
<path d="M189.438 18.3891V16.7237H195.344C195.356 16.6365 195.361 16.5668 195.361 16.5178C195.361 16.0114 195.207 15.573 194.9 15.2052C194.589 14.8341 194.188 14.6482 193.695 14.6482C193.138 14.6482 192.546 14.791 191.919 15.0732L190.251 15.8536L189.66 14.463C191.19 13.4402 192.627 12.928 193.972 12.928C194.947 12.928 195.724 13.329 196.307 14.131C196.823 14.835 197.11 15.6976 197.155 16.7245H198.38V18.3899L189.438 18.3891ZM196.324 29.9398C195.462 29.1768 194.511 28.4662 193.474 27.8111C192.201 27.01 191.152 26.5567 190.327 26.4596L190.346 24.2388C190.506 24.2388 190.75 24.2479 191.079 24.2678C191.408 24.2852 191.65 24.2944 191.814 24.2944C192.642 24.2944 193.411 24.1657 194.116 23.905C195.095 23.5464 195.583 23.0092 195.583 22.2927C195.583 21.8627 195.332 21.431 194.83 20.9984C194.33 20.5659 193.86 20.3501 193.425 20.3501C193.139 20.3501 192.874 20.4057 192.624 20.5169C192.301 20.6531 192.142 20.8424 192.142 21.0906C192.142 21.5979 192.647 21.8685 193.659 21.905L192.679 23.4218C192.061 23.4359 191.506 23.1977 191.011 22.7103C190.516 22.2247 190.272 21.6651 190.272 21.0333C190.272 20.2454 190.665 19.6344 191.455 19.2002C192.098 18.8441 192.849 18.6647 193.714 18.6647C194.666 18.6647 195.518 19.0416 196.279 19.793C197.038 20.5476 197.417 21.3986 197.417 22.3492C197.417 23.3745 196.977 24.1889 196.104 24.7933C195.4 25.2848 194.487 25.6069 193.363 25.7547C194.968 26.6331 196.407 27.6866 197.676 28.922L196.324 29.9398Z" fill="black"/>
<path d="M210.434 15.4435C208.172 14.0138 206.317 13.2974 204.859 13.2974C203.673 13.2974 202.705 13.568 201.952 14.1118C201.126 14.7046 200.682 15.5746 200.62 16.7245H201.972V18.3899H200.62V28.2553H198.749V18.3891H197.38V16.7237H198.749C198.812 15.03 199.437 13.7291 200.625 12.8167C201.713 11.9632 203.126 11.5365 204.867 11.5365C205.967 11.5365 207.101 11.7905 208.262 12.2953C209.076 12.654 210.138 13.2592 211.452 14.1102L210.434 15.4435Z" fill="black"/>
<path d="M203.823 18.3891V26.4977L204.267 26.5152C205.255 26.5525 206.293 26.2802 207.378 25.6999C208.573 25.0606 209.176 24.2885 209.176 23.3869C209.176 22.4247 208.724 21.9432 207.824 21.9432C207.576 21.9432 206.983 22.1947 206.044 22.702L205.302 21.0914C205.661 20.8199 206.138 20.5875 206.739 20.3973C207.336 20.2064 207.869 20.1101 208.338 20.1101C209.217 20.1101 209.902 20.4322 210.394 21.0731C210.837 21.6534 211.062 22.3932 211.062 23.2956C211.062 24.4687 210.506 25.5172 209.396 26.4438C208.433 27.2449 207.328 27.7754 206.083 28.0344C205.243 28.2096 203.865 28.2951 201.953 28.2951V18.3907H200.88V16.7253H208.73V16.6464C208.73 15.9939 208.445 15.4576 207.879 15.0367C207.372 14.6556 206.778 14.463 206.099 14.463C205.199 14.463 203.877 14.9329 202.138 15.871L201.529 14.463C203.243 13.402 204.817 12.8723 206.251 12.8723C207.397 12.8723 208.384 13.231 209.209 13.9532C210.037 14.6764 210.489 15.5979 210.561 16.7237H212.064V18.3891H203.823Z" fill="black"/>
<path d="M0.517822 0.240723H3.57714C4.18237 0.240723 4.63483 0.266459 4.93121 0.315442C5.23009 0.365254 5.49742 0.471522 5.73154 0.630922C5.96732 0.790322 6.16408 1.00369 6.31684 1.27018C6.47541 1.53668 6.55427 1.83556 6.55427 2.16598C6.55427 2.52629 6.4588 2.85505 6.2637 3.1531C6.06943 3.45114 5.80958 3.67696 5.47749 3.82723C5.94407 3.96421 6.30438 4.19418 6.55427 4.52211C6.80334 4.84839 6.93119 5.23443 6.93119 5.67611C6.93119 6.02313 6.85066 6.36269 6.68794 6.69394C6.52688 7.02271 6.30438 7.28422 6.02294 7.48264C5.74316 7.67857 5.39779 7.79812 4.98601 7.84544C4.7303 7.87367 4.10848 7.89027 3.12302 7.89692H0.517822V0.240723ZM2.06035 1.51343V3.28344H3.0757C3.6776 3.28344 4.05368 3.27514 4.19814 3.25771C4.46132 3.22533 4.67136 3.13649 4.82246 2.98207C4.97439 2.83347 5.05077 2.63256 5.05077 2.38515C5.05077 2.14854 4.98352 1.95594 4.85484 1.80899C4.72283 1.66038 4.52939 1.57072 4.27037 1.53834C4.11844 1.52174 3.6776 1.5126 2.95034 1.5126H2.06035V1.51343ZM2.06035 4.55864V6.60594H3.49412C4.05036 6.60594 4.40237 6.59017 4.55264 6.55862C4.78095 6.51794 4.96857 6.41582 5.11386 6.25393C5.25832 6.09204 5.33138 5.87369 5.33138 5.60305C5.33138 5.37308 5.27658 5.17881 5.16534 5.01692C5.05326 4.85918 4.8922 4.73963 4.68215 4.6674C4.47128 4.59517 4.01383 4.55864 3.31065 4.55864H2.06035Z" fill="black"/>
<path d="M15.1395 7.89609H13.4575L12.7908 6.15597H9.72903L9.09724 7.89609H7.45508L10.4413 0.240723H12.0735L15.1395 7.89609ZM12.2935 4.86748L11.2383 2.02567L10.2039 4.86748H12.2935Z" fill="black"/>
<path d="M15.9763 7.89609V0.240723H17.479L20.6122 5.35232V0.240723H22.0493V7.89609H20.496L17.4101 2.90155V7.89609H15.9763Z" fill="black"/>
<path d="M27.2482 5.0815V3.79135H30.579V6.84321C30.2544 7.15453 29.7861 7.43183 29.1701 7.6701C28.5566 7.9092 27.9348 8.02875 27.303 8.02875C26.501 8.02875 25.8069 7.85772 25.2092 7.52315C24.6148 7.18857 24.1673 6.70705 23.8659 6.0819C23.5687 5.45759 23.4176 4.77681 23.4176 4.04125C23.4176 3.24425 23.5861 2.53608 23.9199 1.91757C24.2545 1.29657 24.7426 0.820864 25.3894 0.491271C25.88 0.237227 26.4894 0.109375 27.22 0.109375C28.1714 0.109375 28.9136 0.310285 29.4491 0.707125C29.9821 1.10729 30.3291 1.65772 30.481 2.3609L28.946 2.64733C28.8347 2.27124 28.6338 1.97569 28.3366 1.75817C28.0385 1.54066 27.6658 1.4319 27.22 1.4319C26.545 1.4319 26.0079 1.64526 25.611 2.07365C25.21 2.50204 25.0124 3.13715 25.0124 3.97981C25.0124 4.89055 25.2142 5.57049 25.6177 6.02462C26.0203 6.47957 26.55 6.70705 27.2058 6.70705C27.5305 6.70705 27.8534 6.64313 28.178 6.51527C28.5051 6.38742 28.7841 6.23383 29.019 6.05451V5.0815H27.2482Z" fill="black"/>
<path d="M32.045 7.89595V0.302856H33.5926V6.60581H37.4356V7.89595H32.045Z" fill="black"/>
<path d="M45.4405 7.89609H43.7601L43.0902 6.15597H40.0308L39.399 7.89609H37.7585L40.7398 0.240723H42.3762L45.4405 7.89609ZM42.5953 4.86748L41.5402 2.02567L40.5057 4.86748H42.5953Z" fill="black"/>
<path d="M46.2574 0.240723H49.0826C49.7203 0.240723 50.2051 0.287215 50.5413 0.38601C50.988 0.518014 51.3732 0.752963 51.692 1.0892C52.0149 1.42875 52.2582 1.8422 52.4259 2.33119C52.5919 2.82101 52.6758 3.42292 52.6758 4.14188C52.6758 4.77035 52.5969 5.31663 52.4417 5.77241C52.2499 6.32616 51.9759 6.77863 51.6206 7.12399C51.3533 7.38468 50.9921 7.58891 50.5347 7.7342C50.1943 7.84296 49.7377 7.89609 49.1657 7.89609H46.2583L46.2574 0.240723ZM47.8025 1.53336V6.60594H48.9573C49.3898 6.60594 49.7012 6.58187 49.8929 6.53288C50.1445 6.47145 50.3512 6.36435 50.5156 6.21574C50.6808 6.06465 50.8161 5.8189 50.9207 5.47603C51.0237 5.13315 51.0776 4.66574 51.0776 4.07297C51.0776 3.48269 51.0237 3.02608 50.9207 2.7106C50.8161 2.39512 50.6683 2.14522 50.4816 1.96922C50.2939 1.79239 50.0548 1.67117 49.7676 1.60891C49.5525 1.5591 49.1275 1.53419 48.499 1.53419L47.8025 1.53336Z" fill="black"/>
<path d="M53.9874 7.89609V0.240723H59.6619V1.53336H55.5308V3.2328H59.3772V4.52211H55.5308V6.60594H59.8097V7.89609H53.9874Z" fill="black"/>
<path d="M60.7296 5.40538L62.2348 5.25843C62.3236 5.76403 62.5071 6.13431 62.7852 6.37092C63.0617 6.60753 63.4353 6.72707 63.9043 6.72707C64.4033 6.72707 64.7769 6.62081 65.0301 6.4091C65.2833 6.19823 65.407 5.95332 65.407 5.66939C65.407 5.49006 65.3547 5.33647 65.2493 5.20862C65.1438 5.08077 64.957 4.96952 64.693 4.87571C64.5121 4.81427 64.0969 4.70136 63.4544 4.54362C62.6275 4.33607 62.048 4.08535 61.7101 3.78481C61.241 3.36473 61.0061 2.85083 61.0061 2.2456C61.0061 1.8554 61.1165 1.49094 61.3382 1.14973C61.5582 0.812662 61.8753 0.552806 62.2921 0.375141C62.7063 0.198306 63.2095 0.108643 63.7972 0.108643C64.7595 0.108643 65.4826 0.320346 65.9682 0.739602C66.4547 1.16218 66.7104 1.72506 66.7345 2.42908L65.1887 2.49716C65.1206 2.10281 64.9786 1.81888 64.762 1.64868C64.5436 1.47434 64.2182 1.38883 63.7831 1.38883C63.3332 1.38883 62.9836 1.48264 62.7271 1.66612C62.5652 1.78567 62.4822 1.94341 62.4822 2.14183C62.4822 2.32281 62.5586 2.4764 62.713 2.60674C62.9056 2.77113 63.3805 2.94132 64.1326 3.11815C64.8848 3.29499 65.4394 3.47846 65.8022 3.67024C66.1608 3.85787 66.444 4.11856 66.6474 4.44649C66.8524 4.77525 66.9537 5.18206 66.9537 5.6669C66.9537 6.10525 66.8308 6.51537 66.5884 6.8981C66.3443 7.28249 65.999 7.56808 65.5556 7.75321C65.1073 7.93918 64.5536 8.03216 63.8886 8.03216C62.9197 8.03216 62.1775 7.80801 61.657 7.36053C61.1397 6.91304 60.8309 6.26299 60.7296 5.40538Z" fill="black"/>
<path d="M68.2596 7.89609V0.240723H69.8055V3.25106H72.8349V0.240723H74.3791V7.89609H72.8349V4.54868H69.8055V7.89609H68.2596Z" fill="black"/>
<path d="M78.9552 7.89609V0.240723H82.2096C83.0282 0.240723 83.6202 0.30963 83.9921 0.445784C84.3624 0.581939 84.6621 0.828512 84.8821 1.17886C85.1046 1.53087 85.2175 1.93435 85.2175 2.38598C85.2175 2.96215 85.0481 3.43454 84.7127 3.81063C84.374 4.18339 83.8667 4.42 83.1967 4.51796C83.5305 4.71223 83.8053 4.9256 84.0261 5.15806C84.2436 5.39301 84.535 5.80645 84.9045 6.40337L85.8385 7.89609H83.9921L82.8738 6.2282C82.4761 5.63543 82.2046 5.26017 82.0577 5.10409C81.9099 4.94884 81.758 4.84175 81.5928 4.78612C81.4292 4.72718 81.1694 4.69895 80.814 4.69895H80.5035V7.89526L78.9552 7.89609ZM80.5044 3.47771H81.6476C82.3898 3.47771 82.8497 3.44616 83.0357 3.3839C83.2217 3.31997 83.3653 3.21287 83.4682 3.06012C83.5745 2.90653 83.6243 2.71392 83.6243 2.48395C83.6243 2.22741 83.5579 2.01903 83.4184 1.86129C83.2798 1.70355 83.0872 1.60144 82.8364 1.56076C82.7127 1.54332 82.335 1.53336 81.7082 1.53336H80.5044V3.47771Z" fill="black"/>
<path d="M86.6737 7.89609V0.240723H92.3524V1.53336H88.2221V3.2328H92.0643V4.52211H88.2221V6.60594H92.4993V7.89609H86.6737Z" fill="black"/>
<path d="M93.8052 0.240723H96.6312C97.2671 0.240723 97.7545 0.287215 98.0857 0.38601C98.5357 0.518014 98.9193 0.752963 99.2422 1.0892C99.5627 1.42875 99.8059 1.8422 99.9711 2.33119C100.14 2.82101 100.224 3.42292 100.224 4.14188C100.224 4.77035 100.144 5.31663 99.9894 5.77241C99.7968 6.32616 99.5237 6.77863 99.1675 7.12399C98.901 7.38468 98.5382 7.58891 98.0824 7.7342C97.7412 7.84296 97.2854 7.89609 96.7142 7.89609H93.806L93.8052 0.240723ZM95.3477 1.53336V6.60594H96.505C96.9351 6.60594 97.2489 6.58187 97.4382 6.53288C97.6897 6.47145 97.8998 6.36435 98.0633 6.21574C98.2294 6.06465 98.3639 5.8189 98.4676 5.47603C98.5722 5.13315 98.6237 4.66574 98.6237 4.07297C98.6237 3.48269 98.5722 3.02608 98.4676 2.7106C98.3639 2.39512 98.2186 2.14522 98.0293 1.96922C97.8417 1.79239 97.6017 1.67117 97.3145 1.60891C97.0961 1.5591 96.6752 1.53419 96.0442 1.53419L95.3477 1.53336Z" fill="black"/>
<path d="M109.406 5.08158L110.904 5.55479C110.674 6.39082 110.292 7.01347 109.757 7.41861C109.221 7.82376 108.543 8.02799 107.724 8.02799C106.706 8.02799 105.871 7.67847 105.217 6.98275C104.56 6.29036 104.233 5.34143 104.233 4.13431C104.233 2.86076 104.563 1.86949 105.221 1.16631C105.877 0.462287 106.742 0.107788 107.817 0.107788C108.752 0.107788 109.514 0.385079 110.099 0.939659C110.447 1.26593 110.708 1.73666 110.881 2.34852L109.352 2.71299C109.261 2.31615 109.07 2.00399 108.785 1.77485C108.497 1.54488 108.15 1.42948 107.734 1.42948C107.167 1.42948 106.708 1.63371 106.355 2.03886C106.001 2.44815 105.824 3.10734 105.824 4.01974C105.824 4.9861 105.999 5.67683 106.347 6.08613C106.695 6.49957 107.147 6.70464 107.705 6.70464C108.115 6.70464 108.469 6.57263 108.766 6.31194C109.064 6.05292 109.277 5.64197 109.406 5.08158Z" fill="black"/>
<path d="M112.236 7.89609V0.240723H115.49C116.307 0.240723 116.902 0.30963 117.272 0.445784C117.644 0.581939 117.94 0.828512 118.164 1.17886C118.386 1.53087 118.496 1.93435 118.496 2.38598C118.496 2.96215 118.327 3.43454 117.991 3.81063C117.652 4.18339 117.148 4.42 116.475 4.51796C116.809 4.71223 117.084 4.9256 117.303 5.15806C117.519 5.39301 117.813 5.80645 118.185 6.40337L119.119 7.89609H117.268L116.151 6.2282C115.753 5.63543 115.483 5.26017 115.337 5.10409C115.191 4.94884 115.036 4.84175 114.871 4.78612C114.71 4.72718 114.45 4.69895 114.094 4.69895H113.779V7.89526L112.236 7.89609ZM113.781 3.47771H114.926C115.668 3.47771 116.13 3.44616 116.314 3.3839C116.5 3.31997 116.643 3.21287 116.749 3.06012C116.851 2.90653 116.906 2.71392 116.906 2.48395C116.906 2.22741 116.836 2.01903 116.697 1.86129C116.56 1.70355 116.367 1.60144 116.117 1.56076C115.989 1.54332 115.615 1.53336 114.989 1.53336H113.781V3.47771Z" fill="black"/>
<path d="M119.955 7.89609V0.240723H125.631V1.53336H121.499V3.2328H125.346V4.52211H121.499V6.60594H125.777V7.89609H119.955Z" fill="black"/>
<path d="M126.697 5.40538L128.202 5.25843C128.293 5.76403 128.477 6.13431 128.755 6.37092C129.03 6.60753 129.401 6.72707 129.873 6.72707C130.371 6.72707 130.745 6.62081 130.997 6.4091C131.25 6.19823 131.376 5.95332 131.376 5.66939C131.376 5.49006 131.325 5.33647 131.219 5.20862C131.112 5.08077 130.926 4.96952 130.66 4.87571C130.481 4.81427 130.067 4.70136 129.423 4.54362C128.596 4.33607 128.015 4.08535 127.678 3.78481C127.21 3.36473 126.975 2.85083 126.975 2.2456C126.975 1.8554 127.085 1.49094 127.306 1.14973C127.527 0.812662 127.845 0.552806 128.261 0.375141C128.676 0.198306 129.18 0.108643 129.767 0.108643C130.726 0.108643 131.453 0.320346 131.938 0.739602C132.425 1.16218 132.678 1.72506 132.701 2.42908L131.157 2.49716C131.09 2.10281 130.949 1.81888 130.731 1.64868C130.514 1.47434 130.185 1.38883 129.749 1.38883C129.301 1.38883 128.95 1.48264 128.696 1.66612C128.532 1.78567 128.448 1.94341 128.448 2.14183C128.448 2.32281 128.525 2.4764 128.678 2.60674C128.874 2.77113 129.348 2.94132 130.099 3.11815C130.852 3.29499 131.408 3.47846 131.768 3.67024C132.128 3.85787 132.41 4.11856 132.616 4.44649C132.82 4.77525 132.922 5.18206 132.922 5.6669C132.922 6.10525 132.799 6.51537 132.556 6.8981C132.312 7.28249 131.967 7.56808 131.522 7.75321C131.077 7.93918 130.522 8.03216 129.856 8.03216C128.889 8.03216 128.144 7.80801 127.625 7.36053C127.107 6.91304 126.797 6.26299 126.697 5.40538Z" fill="black"/>
<path d="M139.122 5.08158L140.622 5.55479C140.391 6.39082 140.008 7.01347 139.474 7.41861C138.941 7.82376 138.264 8.02799 137.441 8.02799C136.422 8.02799 135.59 7.67847 134.933 6.98275C134.279 6.29036 133.952 5.34143 133.952 4.13431C133.952 2.86076 134.279 1.86949 134.939 1.16631C135.596 0.462287 136.46 0.107788 137.534 0.107788C138.471 0.107788 139.231 0.385079 139.814 0.939659C140.165 1.26593 140.425 1.73666 140.6 2.34852L139.068 2.71299C138.978 2.31615 138.788 2.00399 138.501 1.77485C138.215 1.54488 137.864 1.42948 137.456 1.42948C136.885 1.42948 136.428 1.63371 136.074 2.03886C135.719 2.44815 135.542 3.10734 135.542 4.01974C135.542 4.9861 135.715 5.67683 136.065 6.08613C136.412 6.49957 136.866 6.70464 137.422 6.70464C137.836 6.70464 138.187 6.57263 138.483 6.31194C138.782 6.05292 138.993 5.64197 139.122 5.08158Z" fill="black"/>
<path d="M141.948 7.89609V0.240723H147.623V1.53336H143.493V3.2328H147.339V4.52211H143.493V6.60594H147.77V7.89609H141.948Z" fill="black"/>
<path d="M149.097 7.89609V0.240723H150.602L153.736 5.35232V0.240723H155.173V7.89609H153.62L150.533 2.90155V7.89609H149.097Z" fill="black"/>
<path d="M158.529 7.89609V1.53336H156.258V0.240723H162.341V1.53336H160.076V7.89609H158.529Z" fill="black"/>
<path d="M165.919 5.40538L167.424 5.25843C167.513 5.76403 167.697 6.13431 167.974 6.37092C168.25 6.60753 168.624 6.72707 169.095 6.72707C169.593 6.72707 169.967 6.62081 170.222 6.4091C170.474 6.19823 170.598 5.95332 170.598 5.66939C170.598 5.49006 170.546 5.33647 170.439 5.20862C170.333 5.08077 170.149 4.96952 169.885 4.87571C169.701 4.81427 169.289 4.70136 168.646 4.54362C167.816 4.33607 167.237 4.08535 166.9 3.78481C166.43 3.36473 166.194 2.85083 166.194 2.2456C166.194 1.8554 166.306 1.49094 166.528 1.14973C166.75 0.812662 167.067 0.552806 167.483 0.375141C167.898 0.198306 168.4 0.108643 168.988 0.108643C169.953 0.108643 170.673 0.320346 171.159 0.739602C171.646 1.16218 171.901 1.72506 171.925 2.42908L170.379 2.49716C170.314 2.10281 170.17 1.81888 169.953 1.64868C169.734 1.47434 169.412 1.38883 168.972 1.38883C168.522 1.38883 168.173 1.48264 167.917 1.66612C167.755 1.78567 167.674 1.94341 167.674 2.14183C167.674 2.32281 167.751 2.4764 167.901 2.60674C168.096 2.77113 168.57 2.94132 169.325 3.11815C170.075 3.29499 170.631 3.47846 170.991 3.67024C171.353 3.85787 171.633 4.11856 171.839 4.44649C172.042 4.77525 172.143 5.18206 172.143 5.6669C172.143 6.10525 172.023 6.51537 171.777 6.8981C171.534 7.28249 171.188 7.56808 170.746 7.75321C170.298 7.93918 169.743 8.03216 169.077 8.03216C168.109 8.03216 167.367 7.80801 166.846 7.36053C166.331 6.91304 166.021 6.26299 165.919 5.40538Z" fill="black"/>
<path d="M173.133 4.11521C173.133 3.33481 173.25 2.67978 173.482 2.15176C173.655 1.76157 173.894 1.41122 174.196 1.10238C174.495 0.791051 174.825 0.561084 175.186 0.411646C175.661 0.210735 176.212 0.107788 176.835 0.107788C177.962 0.107788 178.866 0.457306 179.545 1.158C180.22 1.85704 180.56 2.83171 180.56 4.07951C180.56 5.31569 180.223 6.28206 179.551 6.97943C178.878 7.67847 177.981 8.02882 176.859 8.02882C175.717 8.02882 174.811 7.6793 174.142 6.98359C173.469 6.29036 173.133 5.3323 173.133 4.11521ZM174.726 4.06208C174.726 4.92965 174.925 5.58634 175.328 6.03466C175.728 6.48214 176.236 6.7063 176.852 6.7063C177.468 6.7063 177.974 6.48463 178.368 6.04047C178.765 5.59464 178.961 4.92965 178.961 4.04049C178.961 3.16379 178.771 2.51042 178.385 2.07871C178.002 1.64617 177.49 1.43114 176.852 1.43114C176.214 1.43114 175.7 1.64866 175.311 2.08535C174.921 2.52287 174.726 3.18123 174.726 4.06208Z" fill="black"/>
<path d="M186.664 5.08158L188.164 5.55479C187.934 6.39082 187.552 7.01347 187.017 7.41861C186.483 7.82376 185.806 8.02799 184.983 8.02799C183.968 8.02799 183.132 7.67847 182.476 6.98275C181.822 6.29036 181.494 5.34143 181.494 4.13431C181.494 2.86076 181.822 1.86949 182.482 1.16631C183.139 0.462287 184.005 0.107788 185.074 0.107788C186.013 0.107788 186.773 0.385079 187.359 0.939659C187.706 1.26593 187.967 1.73666 188.14 2.34852L186.609 2.71299C186.52 2.31615 186.332 2.00399 186.045 1.77485C185.757 1.54488 185.407 1.42948 184.997 1.42948C184.431 1.42948 183.97 1.63371 183.616 2.03886C183.262 2.44815 183.085 3.10734 183.085 4.01974C183.085 4.9861 183.26 5.67683 183.607 6.08613C183.957 6.49957 184.408 6.70464 184.965 6.70464C185.376 6.70464 185.731 6.57263 186.025 6.31194C186.323 6.05292 186.534 5.64197 186.664 5.08158Z" fill="black"/>
<path d="M189.442 7.89609V0.240723H190.988V7.89609H189.442Z" fill="black"/>
<path d="M192.461 7.89609V0.240723H198.138V1.53336H194.008V3.2328H197.852V4.52211H194.008V6.60594H198.285V7.89609H192.461Z" fill="black"/>
<path d="M201.32 7.89609V1.53336H199.047V0.240723H205.133V1.53336H202.867V7.89609H201.32Z" fill="black"/>
<path d="M208.141 7.89611V4.6749L205.336 0.241577H207.15L208.949 3.26935L210.715 0.241577H212.498L209.683 4.68569V7.89694L208.141 7.89611Z" fill="black"/>
</svg>
